<?xml version="1.0" standalone="no"?><!DOCTYPE svg PUBLIC "-//W3C//DTD SVG 1.1//EN" "http://www.w3.org/Graphics/SVG/1.1/DTD/svg11.dtd"><svg t="1509698849273" class="icon" style="" viewBox="0 0 1024 1024" version="1.1" xmlns="http://www.w3.org/2000/svg" p-id="7883" xmlns:xlink="http://www.w3.org/1999/xlink" width="200" height="200"><defs><style type="text/css"></style></defs><path d="M798.624996 695.785793c-11.007705 0-19.860327-8.890484-19.860327-19.877723L778.76467 457.314517c0-147.904585-120.353089-268.25972-268.280186-268.25972-147.925051 0-268.25972 120.355135-268.25972 268.25972l0 218.593554c0 10.988262-8.90788 19.877723-19.85828 19.877723-11.030218 0-19.87977-8.890484-19.87977-19.877723L202.486714 457.314517c0-169.824827 138.172943-307.99777 307.99777-307.99777 169.846316 0 308.020282 138.172943 308.020282 307.99777l0 218.593554C818.504766 686.895309 809.574373 695.785793 798.624996 695.785793L798.624996 695.785793z" p-id="7884" fill="#4A4A4A"></path><path d="M805.238624 695.785793c-11.028171 0-19.877723-8.890484-19.877723-19.877723 0-10.990309 8.849552-19.87977 19.877723-19.87977 63.875796 0 115.879194-47.52848 115.879194-105.951077 0-58.439994-52.003398-106.026802-115.879194-106.026802-11.028171 0-19.877723-8.890484-19.877723-19.860327 0-10.990309 8.849552-19.87977 19.877723-19.87977 85.795015 0 155.61929 65.387219 155.61929 145.766898C960.857914 630.41904 891.033639 695.785793 805.238624 695.785793L805.238624 695.785793z" p-id="7885" fill="#4A4A4A"></path><path d="M215.772298 695.785793c-85.853343 0-155.715481-65.366753-155.715481-145.70857 0-80.379679 69.862137-145.766898 155.715481-145.766898 10.951423 0 19.860327 8.890484 19.860327 19.87977 0 10.969842-8.90788 19.860327-19.860327 19.860327-63.974034 0-115.978455 47.586808-115.978455 106.026802 0 58.422597 52.003398 105.951077 115.978455 105.951077 10.951423 0 19.860327 8.890484 19.860327 19.87977C235.631602 686.895309 226.723721 695.785793 215.772298 695.785793L215.772298 695.785793z" p-id="7886" fill="#4A4A4A"></path><path d="M657.82318 829.131801c-10.282181 0-18.977213-7.909134-19.781532-18.310018-0.86367-10.949376 7.280824-20.507056 18.2302-21.351284 122.257461-9.55768 122.492822-97.139387 122.415051-100.866269-0.156566-10.990309 8.655124-19.996426 19.644409-20.152992 0.078795 0 0.156566 0 0.214894 0 10.871605 0 19.723204 8.730848 19.87977 19.602454 0.037862 1.276063-0.078795 128.616286-159.053506 140.998291C658.882302 829.131801 658.371672 829.131801 657.82318 829.131801L657.82318 829.131801z" p-id="7887" fill="#4A4A4A"></path><path d="M610.234325 782.720771c12.971429 0 23.607674 10.596336 23.607674 23.587208 0 13.011338-10.636245 23.607674-23.607674 23.607674-13.029758 0-23.587208-10.596336-23.587208-23.607674C586.647117 793.317107 597.204567 782.720771 610.234325 782.720771M610.234325 742.980675c-34.988886 0-63.327304 28.357861-63.327304 63.327304 0 34.969443 28.338419 63.34777 63.327304 63.34777 34.873252 0 63.34777-28.378327 63.34777-63.34777C673.582095 771.338536 645.107577 742.980675 610.234325 742.980675L610.234325 742.980675z" p-id="7888" fill="#4A4A4A"></path></svg>