<?xml version="1.0" standalone="no"?><!DOCTYPE svg PUBLIC "-//W3C//DTD SVG 1.1//EN" "http://www.w3.org/Graphics/SVG/1.1/DTD/svg11.dtd"><svg t="1509781138144" class="icon" style="" viewBox="0 0 1024 1024" version="1.1" xmlns="http://www.w3.org/2000/svg" p-id="5270" xmlns:xlink="http://www.w3.org/1999/xlink" width="200" height="200"><defs><style type="text/css"></style></defs><path d="M565.241483 34.618721l112.046913 237.531776a59.830876 59.830876 0 0 0 44.793169 34.042809l250.841747 38.074193c48.632584 7.422868 68.213597 70.005324 32.954974 105.96784l-181.540315 184.931798a63.798271 63.798271 0 0 0-17.021404 54.967617l42.809471 261.080186c8.318731 50.744262-42.681491 89.458358-86.258845 65.526007l-224.285797-123.245205a57.015305 57.015305 0 0 0-55.287568 0l-224.349787 123.245205c-43.513364 23.93235-94.513587-14.781746-86.194855-65.526007l42.873461-261.080186a63.734281 63.734281 0 0 0-17.149384-54.967617L18.060928 450.235339C-17.261685 414.272823 2.191348 351.690367 50.951912 344.267499l250.777757-38.074193a59.766886 59.766886 0 0 0 44.793169-34.042809L458.569751 34.618721a58.3591 58.3591 0 0 1 106.607742 0" fill="#FBC559" p-id="5271"></path></svg>